<svg width="16" height="16" viewBox="0 0 16 16" fill="none" xmlns="http://www.w3.org/2000/svg">
<path d="M13.5 7V4" stroke="black" stroke-linecap="round" stroke-linejoin="round"/>
<path d="M15 5.5H12" stroke="black" stroke-linecap="round" stroke-linejoin="round"/>
<path d="M10.5 1.5V3.5" stroke="black" stroke-linecap="round" stroke-linejoin="round"/>
<path d="M11.5 2.5H9.5" stroke="black" stroke-linecap="round" stroke-linejoin="round"/>
<path d="M13.5437 9.53755C12.562 9.81283 11.5248 9.82185 10.5384 9.56369C9.55214 9.30553 8.65232 8.78949 7.9314 8.06857C7.21048 7.34765 6.69445 6.44783 6.43629 5.46152C6.17813 4.47522 6.18715 3.43797 6.46242 2.4563C5.49459 2.72568 4.61422 3.24394 3.90901 3.95944C3.2038 4.67495 2.69837 5.56274 2.44304 6.53438C2.18772 7.50602 2.19142 8.52759 2.45378 9.49736C2.71614 10.4671 3.228 11.3512 3.93838 12.0616C4.64876 12.772 5.53286 13.2838 6.50262 13.5462C7.47238 13.8086 8.49396 13.8123 9.4656 13.5569C10.4372 13.3016 11.325 12.7962 12.0405 12.091C12.756 11.3858 13.2743 10.5054 13.5437 9.53755Z" stroke="black" stroke-linecap="round" stroke-linejoin="round"/>
</svg>
